<svg width="28" height="28" viewBox="0 0 28 28" fill="none" xmlns="http://www.w3.org/2000/svg">
<path d="M13.9999 0.000145968C11.231 0.000145968 8.52423 0.821224 6.22196 2.35955C3.9197 3.89787 2.1253 6.08435 1.06568 8.64249C0.00606597 11.2006 -0.271178 14.0155 0.26901 16.7312C0.809198 19.447 2.14256 21.9415 4.10047 23.8994C6.05839 25.8573 8.55293 27.1907 11.2686 27.7309C13.9843 28.2711 16.7992 27.9938 19.3574 26.9342C21.9155 25.8746 24.102 24.0802 25.6403 21.7779C27.1787 19.4757 27.9997 16.7689 27.9997 14C28.0082 12.1592 27.6518 10.3349 26.9512 8.63254C26.2506 6.9302 25.2197 5.38352 23.9181 4.08183C22.6164 2.78014 21.0697 1.74924 19.3673 1.04866C17.665 0.348087 15.8407 -0.00827909 13.9999 0.000145968ZM21.4453 18.4545C21.3308 18.6411 21.1723 18.7966 20.9837 18.9076C20.7951 19.0186 20.5821 19.0815 20.3634 19.0909C20.1377 19.0879 19.9172 19.0218 19.7271 18.9L12.7272 14.7V7.63644C12.7272 7.29889 12.8612 6.97517 13.0999 6.73649C13.3386 6.49781 13.6623 6.36372 13.9999 6.36372C14.3374 6.36372 14.6611 6.49781 14.8998 6.73649C15.1385 6.97517 15.2726 7.29889 15.2726 7.63644V13.3L20.9998 16.7363C21.1466 16.8152 21.2756 16.9236 21.3785 17.0547C21.4815 17.1858 21.5562 17.3367 21.5981 17.4981C21.6399 17.6594 21.6479 17.8277 21.6216 17.9923C21.5953 18.1569 21.5353 18.3142 21.4453 18.4545Z" fill="url(#paint0_linear_57_193)"/>
<defs>
<linearGradient id="paint0_linear_57_193" x1="4.01395" y1="22.8111" x2="25.748" y2="6.95108" gradientUnits="userSpaceOnUse">
<stop stop-color="#FF7F32"/>
<stop offset="1" stop-color="#F1C400"/>
</linearGradient>
</defs>
</svg>
