<svg width="45" height="45" viewBox="0 0 45 45" fill="none" xmlns="http://www.w3.org/2000/svg">
<g clip-path="url(#clip0_57_178)">
<path d="M45 18.2812C45 17.4375 44.4375 16.875 43.5938 16.875H36.5625V14.0625C36.5625 11.6719 34.7344 9.84375 32.3438 9.84375C31.5 9.84375 30.9375 10.4062 30.9375 11.25C30.9375 12.0938 31.5 12.6562 32.3438 12.6562C33.1875 12.6562 33.75 13.2188 33.75 14.0625V16.875H27.8438L24.4688 8.4375H26.7188C27.5625 8.4375 28.125 7.875 28.125 7.03125C28.125 6.1875 27.5625 5.625 26.7188 5.625H22.5H9.84375C9.70312 5.625 9.42188 5.625 9.28125 5.76562C9.28125 5.76562 9.14062 5.76562 9.14062 5.90625C9 5.90625 9 6.04688 8.85938 6.04688L8.71875 6.1875C8.71875 6.32813 8.57812 6.32812 8.57812 6.46875C8.57812 6.46875 8.57812 6.60937 8.4375 6.60937V6.75L6.04688 18.4219C4.35938 19.125 2.95312 20.25 1.6875 21.5156C1.125 22.0781 1.125 22.9219 1.6875 23.4844C2.25 24.0469 3.09375 24.0469 3.65625 23.4844C6.04688 21.0938 9.28125 19.6875 12.6563 19.6875C19.6875 19.6875 25.3125 25.3125 25.3125 32.3438C25.3125 32.7656 25.3125 33.1875 25.3125 33.6094C25.3125 33.6094 25.3125 33.6094 25.3125 33.75C25.3125 33.75 25.3125 33.75 25.3125 33.8906C25.3125 34.0312 25.3125 34.0312 25.3125 34.1719C25.3125 34.3125 25.3125 34.3125 25.3125 34.4531C25.3125 34.5938 25.4531 34.5938 25.4531 34.7344L25.5938 34.875C25.7344 35.0156 25.7344 35.0156 25.875 35.1562L26.0156 35.2969C26.1562 35.2969 26.2969 35.4375 26.4375 35.4375H26.5781C26.5781 35.4375 26.5781 35.4375 26.7188 35.4375H31.0781C30.9375 35.5781 30.9375 36.1406 30.9375 36.5625C30.9375 40.5 34.0312 43.5938 37.9688 43.5938C41.9062 43.5938 45 40.5 45 36.5625C45 35.8594 44.8594 35.1562 44.7188 34.5938C44.8594 34.3125 45 34.0312 45 33.75V18.2812ZM37.9688 40.7812C35.5781 40.7812 33.75 38.9531 33.75 36.5625C33.75 34.1719 35.5781 32.3438 37.9688 32.3438C40.3594 32.3438 42.1875 34.1719 42.1875 36.5625C42.1875 38.9531 40.3594 40.7812 37.9688 40.7812Z" fill="black"/>
<path d="M12.6562 21.0938C6.46875 21.0938 1.40625 26.1562 1.40625 32.3438C1.40625 38.5312 6.46875 43.5938 12.6562 43.5938C18.8438 43.5938 23.9062 38.5312 23.9062 32.3438C23.9062 26.1562 18.8438 21.0938 12.6562 21.0938ZM12.6562 36.5625C10.2656 36.5625 8.4375 34.7344 8.4375 32.3438C8.4375 29.9531 10.2656 28.125 12.6562 28.125C15.0469 28.125 16.875 29.9531 16.875 32.3438C16.875 34.7344 15.0469 36.5625 12.6562 36.5625Z" fill="black"/>
</g>
<defs>
<clipPath id="clip0_57_178">
<rect width="45" height="45" fill="white"/>
</clipPath>
</defs>
</svg>
