<svg width="28" height="29" viewBox="0 0 28 29" fill="none" xmlns="http://www.w3.org/2000/svg">
<path fill-rule="evenodd" clip-rule="evenodd" d="M24.697 15.921C24.7546 15.457 24.7977 14.993 24.7977 14.5C24.7977 14.007 24.7546 13.543 24.697 13.079L27.7339 10.6865C28.0073 10.469 28.0793 10.0775 27.9066 9.7585L25.028 4.7415C24.8553 4.4225 24.4667 4.3065 24.1501 4.4225L20.5663 5.8725C19.8178 5.2925 19.0119 4.814 18.1339 4.4515L17.587 0.609C17.5438 0.261 17.2415 0 16.8817 0H11.1246C10.7648 0 10.4626 0.261 10.4194 0.609L9.87246 4.4515C8.9945 4.814 8.18851 5.307 7.44009 5.8725L3.85629 4.4225C3.52526 4.292 3.15105 4.4225 2.97834 4.7415L0.0997871 9.7585C-0.0873186 10.0775 -0.000961695 10.469 0.2725 10.6865L3.30937 13.079C3.2518 13.543 3.20862 14.0215 3.20862 14.5C3.20862 14.9785 3.2518 15.457 3.30937 15.921L0.2725 18.3135C-0.000961695 18.531 -0.0729259 18.9225 0.0997871 19.2415L2.97834 24.2585C3.15105 24.5775 3.53965 24.6935 3.85629 24.5775L7.44009 23.1275C8.18851 23.7075 8.9945 24.186 9.87246 24.5485L10.4194 28.391C10.4626 28.739 10.7648 29 11.1246 29H16.8817C17.2415 29 17.5438 28.739 17.587 28.391L18.1339 24.5485C19.0119 24.186 19.8178 23.693 20.5663 23.1275L24.1501 24.5775C24.4811 24.708 24.8553 24.5775 25.028 24.2585L27.9066 19.2415C28.0793 18.9225 28.0073 18.531 27.7339 18.3135L24.697 15.921ZM14.0032 19.575C11.2254 19.575 8.96572 17.2985 8.96572 14.5C8.96572 11.7015 11.2254 9.425 14.0032 9.425C16.781 9.425 19.0406 11.7015 19.0406 14.5C19.0406 17.2985 16.781 19.575 14.0032 19.575Z" fill="url(#paint0_linear_60_27)"/>
<defs>
<linearGradient id="paint0_linear_60_27" x1="28" y1="1.44874e-06" x2="2.75935" y2="25.3076" gradientUnits="userSpaceOnUse">
<stop stop-color="#F1C400"/>
<stop offset="1" stop-color="#FF7F32"/>
</linearGradient>
</defs>
</svg>
