<svg width="30" height="30" viewBox="0 0 30 30" fill="none" xmlns="http://www.w3.org/2000/svg">
<path fill-rule="evenodd" clip-rule="evenodd" d="M21 15.048V14.952C21 14.2941 21 13.7263 20.9681 13.2564C20.9341 12.7617 20.8599 12.2668 20.6574 11.7779C20.2008 10.6753 19.3246 9.79926 18.2221 9.34254C17.7332 9.14004 17.2383 9.06577 16.7436 9.03202C16.2737 8.99997 15.706 8.99998 15.0481 9H15.048H14.952H14.9519C14.294 8.99998 13.7263 8.99997 13.2564 9.03202C12.7617 9.06577 12.2668 9.14004 11.7779 9.34254C10.6753 9.79926 9.79926 10.6753 9.34254 11.7779C9.14004 12.2668 9.06577 12.7617 9.03202 13.2564C8.99997 13.7263 8.99998 14.294 9 14.9519V14.952V15.048V15.0481C8.99998 15.706 8.99997 16.2737 9.03202 16.7436C9.06577 17.2383 9.14004 17.7332 9.34254 18.2221C9.79926 19.3246 10.6753 20.2008 11.7779 20.6574C12.2668 20.8599 12.7617 20.9341 13.2564 20.9681C13.7263 21 14.2941 21 14.952 21H15.048C15.7059 21 16.2737 21 16.7436 20.9681C17.2383 20.9341 17.7332 20.8599 18.222 20.6574C19.3246 20.2008 20.2008 19.3246 20.6574 18.2221C20.8599 17.7332 20.9341 17.2383 20.9681 16.7436C21 16.2737 21 15.7059 21 15.048ZM3 19.5V10.5H1.5C0.67158 10.5 0 9.82843 0 9C0 8.17158 0.67158 7.5 1.5 7.5H3.0185C3.02222 7.4161 3.02667 7.33489 3.03202 7.25643C3.06577 6.76168 3.14004 6.26682 3.34254 5.77793C3.79926 4.67529 4.67531 3.79926 5.77793 3.34254C6.26682 3.14004 6.76168 3.06577 7.25643 3.03202C7.33489 3.02667 7.4161 3.02222 7.5 3.0185V1.5C7.5 0.67158 8.17158 0 9 0C9.82842 0 10.5 0.67158 10.5 1.5V3H19.5V1.5C19.5 0.67158 20.1716 0 21 0C21.8284 0 22.5 0.67158 22.5 1.5V3.0185C22.5839 3.02222 22.6651 3.02667 22.7436 3.03202C23.2383 3.06577 23.7332 3.14004 24.2221 3.34254C25.3246 3.79926 26.2008 4.67531 26.6574 5.77793C26.8599 6.26682 26.9342 6.76168 26.9681 7.25643C26.9733 7.33489 26.9778 7.4161 26.9815 7.5H28.5C29.3284 7.5 30 8.17158 30 9C30 9.82842 29.3284 10.5 28.5 10.5H27V19.5H28.5C29.3284 19.5 30 20.1716 30 21C30 21.8284 29.3284 22.5 28.5 22.5H26.9815C26.9778 22.5839 26.9733 22.6651 26.9681 22.7436C26.9342 23.2383 26.8599 23.7332 26.6574 24.2221C26.2008 25.3246 25.3246 26.2008 24.2221 26.6574C23.7332 26.8599 23.2383 26.9342 22.7436 26.9681C22.6651 26.9733 22.5839 26.9778 22.5 26.9815V28.5C22.5 29.3284 21.8284 30 21 30C20.1716 30 19.5 29.3284 19.5 28.5V27H10.5V28.5C10.5 29.3284 9.82842 30 9 30C8.17158 30 7.5 29.3284 7.5 28.5V26.9815C7.4161 26.9778 7.33489 26.9733 7.25643 26.9681C6.76168 26.9342 6.26682 26.8599 5.77793 26.6574C4.67531 26.2008 3.79926 25.3246 3.34254 24.2221C3.14004 23.7332 3.06577 23.2383 3.03202 22.7436C3.02667 22.6651 3.02222 22.5839 3.0185 22.5H1.5C0.67158 22.5 0 21.8284 0 21C0 20.1716 0.67158 19.5 1.5 19.5H3ZM17.8858 12.9259C17.9116 12.9883 17.9515 13.1186 17.9749 13.4606C17.9992 13.816 18 14.2805 18 14.9999C18 15.7193 17.9992 16.1839 17.9749 16.5392C17.9515 16.8812 17.9116 17.0116 17.8858 17.074C17.7336 17.4415 17.4415 17.7335 17.074 17.8858C17.0116 17.9116 16.8813 17.9515 16.5393 17.9749C16.1839 17.9992 15.7194 17.9999 15 17.9999C14.2806 17.9999 13.816 17.9992 13.4607 17.9749C13.1187 17.9515 12.9883 17.9116 12.9259 17.8858C12.5584 17.7335 12.2664 17.4415 12.1141 17.074C12.0883 17.0116 12.0484 16.8812 12.025 16.5392C12.0007 16.1839 12 15.7193 12 14.9999C12 14.2805 12.0007 13.816 12.025 13.4606C12.0484 13.1186 12.0883 12.9883 12.1141 12.9259C12.2664 12.5584 12.5584 12.2663 12.9259 12.1141C12.9883 12.0883 13.1187 12.0484 13.4607 12.025C13.816 12.0007 14.2806 11.9999 15 11.9999C15.7194 11.9999 16.1839 12.0007 16.5393 12.025C16.8813 12.0484 17.0116 12.0883 17.074 12.1141C17.4415 12.2663 17.7336 12.5584 17.8858 12.9259Z" fill="url(#paint0_linear_57_199)"/>
<defs>
<linearGradient id="paint0_linear_57_199" x1="4" y1="27" x2="30" y2="10.5" gradientUnits="userSpaceOnUse">
<stop stop-color="#FF7F32"/>
<stop offset="1" stop-color="#F1C400"/>
</linearGradient>
</defs>
</svg>
