<svg width="78" height="63" viewBox="0 0 78 63" fill="none" xmlns="http://www.w3.org/2000/svg">
<path d="M4.04492 62.1693H18.6446C20.4633 62.1693 21.9514 60.6812 21.9514 58.8624V3.30688C21.9514 1.4881 20.4633 0 18.6446 0H4.04492C2.20964 0 0.738037 1.4881 0.738037 3.30688V58.8792C0.738037 60.6815 2.20964 62.1695 4.04492 62.1695V62.1693Z" fill="url(#paint0_linear_44_82)"/>
<path d="M59.9647 62.1693H74.5484C76.3837 62.1693 77.8553 60.6812 77.8553 58.8625V32.8378C77.8553 31.0025 76.3837 29.5309 74.5484 29.5309H59.9647C58.1294 29.5309 56.6578 31.0025 56.6578 32.8378V58.8625C56.6578 60.6812 58.1294 62.1693 59.9647 62.1693Z" fill="url(#paint1_linear_44_82)"/>
<path d="M32.0043 62.1693H46.5881C48.4234 62.1693 49.895 60.6812 49.895 58.8624V20.1719C49.895 18.3531 48.4234 16.8651 46.5881 16.8651H32.0043C30.1691 16.8651 28.6974 18.3531 28.6974 20.1719V58.8624C28.6974 60.6812 30.1691 62.1693 32.0043 62.1693Z" fill="url(#paint2_linear_44_82)"/>
<defs>
<linearGradient id="paint0_linear_44_82" x1="11.3447" y1="0" x2="11.3447" y2="62.1695" gradientUnits="userSpaceOnUse">
<stop stop-color="#F1C400"/>
<stop offset="1" stop-color="#FF7F32"/>
</linearGradient>
<linearGradient id="paint1_linear_44_82" x1="67.2565" y1="29.5309" x2="67.2565" y2="62.1693" gradientUnits="userSpaceOnUse">
<stop stop-color="#F1C400"/>
<stop offset="1" stop-color="#FF7F32"/>
</linearGradient>
<linearGradient id="paint2_linear_44_82" x1="39.2962" y1="16.8651" x2="39.2962" y2="62.1693" gradientUnits="userSpaceOnUse">
<stop stop-color="#F1C400"/>
<stop offset="1" stop-color="#FF7F32"/>
</linearGradient>
</defs>
</svg>
