<svg width="71" height="65" viewBox="0 0 71 65" fill="none" xmlns="http://www.w3.org/2000/svg">
<path d="M34.1812 62.9716C34.1107 63.7823 33.4933 64.4429 32.6881 64.573C31.0507 64.8499 29.3965 64.9933 27.7389 65C11.6333 65 0 52.1719 0 34.4934C0 25.7918 2.82858 18.133 7.99913 12.6776L2.72786 8.17707H2.73122C1.65078 7.24293 1.23476 5.755 1.67426 4.40052C2.11377 3.04604 3.32505 2.08187 4.75108 1.95176L26.6018 0.0301062C27.0816 -0.0132648 27.5614 0.136865 27.9272 0.447134C28.2929 0.760734 28.5143 1.20448 28.5445 1.68489L29.9303 23.4637C30.0209 24.8915 29.2391 26.2327 27.9506 26.8699C26.6622 27.5071 25.1154 27.3136 24.0249 26.3795L18.4953 21.6821C15.9285 25.8724 14.5729 30.6833 14.5762 35.5871C14.5829 41.2219 16.3613 46.7127 19.6629 51.2941C22.9612 55.8713 27.6184 59.311 32.984 61.1294C33.7625 61.3963 34.2557 62.157 34.1819 62.971L34.1812 62.9716ZM68.2721 56.8229L63.0009 52.3224C68.1714 46.8677 71 39.2082 71 30.5066C71 12.8281 59.3667 0 43.2611 0L43.2644 0.00333621C41.6036 0.0133445 39.9494 0.156798 38.3153 0.430371C37.5033 0.557143 36.8792 1.22103 36.8121 2.0351C36.7416 2.85244 37.2416 3.60979 38.02 3.87334C43.3751 5.69827 48.0227 9.14124 51.314 13.7179C54.6055 18.2985 56.3771 23.7867 56.3805 29.415C56.3939 34.3158 55.0518 39.1265 52.4984 43.3199L46.9755 38.6392C45.8851 37.7051 44.3382 37.5149 43.0498 38.1521C41.7613 38.786 40.9829 40.1305 41.0701 41.5584L42.4559 63.3371H42.4592C42.5196 64.2746 43.3014 65.0019 44.2476 64.9986H44.4456L66.3056 63.0769H66.3022C67.7282 62.9435 68.9361 61.9793 69.3757 60.6248C69.8119 59.2703 69.3959 57.7857 68.3155 56.8515L68.2721 56.8229Z" fill="url(#paint0_linear_44_84)"/>
<defs>
<linearGradient id="paint0_linear_44_84" x1="35.5" y1="0" x2="35.5" y2="65" gradientUnits="userSpaceOnUse">
<stop stop-color="#F1C400"/>
<stop offset="1" stop-color="#FF7F32"/>
</linearGradient>
</defs>
</svg>
